<mxfile host="app.diagrams.net" modified="2021-09-27T20:02:55.587Z" agent="5.0 (Windows NT 10.0; Win64; x64) AppleWebKit/537.36 (KHTML, like Gecko) Chrome/94.0.4606.61 Safari/537.36 Edg/94.0.992.31" etag="DaPACgfanddJZvkzDlc9" version="15.3.5" type="github">
  <diagram id="f8JgaIdcOjaSZ1BCsyT6" name="Page-1">
    <mxGraphModel dx="1188" dy="567" grid="1" gridSize="10" guides="1" tooltips="1" connect="1" arrows="1" fold="1" page="1" pageScale="1" pageWidth="1169" pageHeight="827" math="0" shadow="0">
      <root>
        <mxCell id="0" />
        <mxCell id="1" parent="0" />
        <mxCell id="TXNMd2RsbOrEZeQuCBzh-4" style="edgeStyle=orthogonalEdgeStyle;rounded=0;orthogonalLoop=1;jettySize=auto;html=1;exitX=1;exitY=1;exitDx=0;exitDy=0;endArrow=block;endFill=1;startSize=14;endSize=14;sourcePerimeterSpacing=8;targetPerimeterSpacing=8;elbow=vertical;" parent="1" source="TXNMd2RsbOrEZeQuCBzh-1" edge="1">
          <mxGeometry relative="1" as="geometry">
            <mxPoint x="310" y="230" as="targetPoint" />
            <Array as="points">
              <mxPoint x="185" y="230" />
            </Array>
          </mxGeometry>
        </mxCell>
        <mxCell id="bSkJlJOAhtK9HsSSiihu-6" style="edgeStyle=orthogonalEdgeStyle;rounded=0;orthogonalLoop=1;jettySize=auto;html=1;exitX=1;exitY=0.5;exitDx=0;exitDy=0;startArrow=none;startFill=1;endArrow=none;endFill=0;startSize=14;endSize=14;targetPerimeterSpacing=8;entryX=0.325;entryY=0.011;entryDx=0;entryDy=0;entryPerimeter=0;" edge="1" parent="1" target="TXNMd2RsbOrEZeQuCBzh-2">
          <mxGeometry relative="1" as="geometry">
            <mxPoint x="500" y="120" as="targetPoint" />
            <mxPoint x="425" y="120" as="sourcePoint" />
            <Array as="points">
              <mxPoint x="500" y="120" />
              <mxPoint x="500" y="150" />
            </Array>
          </mxGeometry>
        </mxCell>
        <mxCell id="bSkJlJOAhtK9HsSSiihu-14" style="edgeStyle=orthogonalEdgeStyle;rounded=0;orthogonalLoop=1;jettySize=auto;html=1;entryX=0.002;entryY=0.434;entryDx=0;entryDy=0;entryPerimeter=0;startArrow=classic;startFill=1;endArrow=none;endFill=0;startSize=14;endSize=14;sourcePerimeterSpacing=8;targetPerimeterSpacing=8;exitX=0;exitY=1;exitDx=0;exitDy=0;" edge="1" parent="1" source="TXNMd2RsbOrEZeQuCBzh-1" target="TXNMd2RsbOrEZeQuCBzh-2">
          <mxGeometry relative="1" as="geometry">
            <mxPoint x="120" y="130" as="sourcePoint" />
            <Array as="points">
              <mxPoint x="115" y="378" />
            </Array>
          </mxGeometry>
        </mxCell>
        <mxCell id="TXNMd2RsbOrEZeQuCBzh-2" value="&lt;font style=&quot;font-size: 21px&quot;&gt;Application database&lt;/font&gt;" style="whiteSpace=wrap;html=1;aspect=fixed;shadow=0;sketch=0;hachureGap=4;pointerEvents=0;dashed=1;strokeWidth=5;gradientColor=#ffffff;" parent="1" vertex="1">
          <mxGeometry x="315" y="144" width="539" height="539" as="geometry" />
        </mxCell>
        <mxCell id="TXNMd2RsbOrEZeQuCBzh-5" style="edgeStyle=orthogonalEdgeStyle;rounded=0;orthogonalLoop=1;jettySize=auto;html=1;exitX=0.6;exitY=1;exitDx=0;exitDy=0;endArrow=none;endFill=0;startSize=14;endSize=14;sourcePerimeterSpacing=8;targetPerimeterSpacing=8;elbow=vertical;exitPerimeter=0;startArrow=block;startFill=1;" parent="1" source="TXNMd2RsbOrEZeQuCBzh-1" edge="1">
          <mxGeometry relative="1" as="geometry">
            <mxPoint x="190.49591527584425" y="189.99852099752627" as="sourcePoint" />
            <mxPoint x="315" y="278.8699999999999" as="targetPoint" />
            <Array as="points">
              <mxPoint x="160" y="279" />
            </Array>
          </mxGeometry>
        </mxCell>
        <mxCell id="TXNMd2RsbOrEZeQuCBzh-7" value="&lt;font size=&quot;1&quot;&gt;&lt;b style=&quot;font-size: 25px&quot;&gt;Dataflow diagram&lt;/b&gt;&lt;/font&gt;" style="text;html=1;strokeColor=none;fillColor=none;align=center;verticalAlign=middle;whiteSpace=wrap;rounded=0;shadow=0;dashed=1;sketch=0;hachureGap=4;pointerEvents=0;" parent="1" vertex="1">
          <mxGeometry x="375" y="50" width="420" height="20" as="geometry" />
        </mxCell>
        <mxCell id="bSkJlJOAhtK9HsSSiihu-4" value="Submit login details" style="text;html=1;strokeColor=none;fillColor=none;align=center;verticalAlign=middle;whiteSpace=wrap;rounded=0;hachureGap=4;pointerEvents=0;" vertex="1" parent="1">
          <mxGeometry x="195" y="190" width="60" height="20" as="geometry" />
        </mxCell>
        <mxCell id="bSkJlJOAhtK9HsSSiihu-5" value="Return if successful, show error if unsuccessful." style="text;html=1;strokeColor=none;fillColor=none;align=center;verticalAlign=middle;whiteSpace=wrap;rounded=0;hachureGap=4;pointerEvents=0;" vertex="1" parent="1">
          <mxGeometry x="150" y="290" width="150" height="20" as="geometry" />
        </mxCell>
        <mxCell id="bSkJlJOAhtK9HsSSiihu-10" style="edgeStyle=orthogonalEdgeStyle;rounded=0;orthogonalLoop=1;jettySize=auto;html=1;exitX=0.65;exitY=0;exitDx=0;exitDy=0;startArrow=none;startFill=0;endArrow=block;endFill=1;startSize=14;endSize=14;sourcePerimeterSpacing=8;targetPerimeterSpacing=8;entryX=0.399;entryY=0.004;entryDx=0;entryDy=0;entryPerimeter=0;exitPerimeter=0;" edge="1" parent="1" source="TXNMd2RsbOrEZeQuCBzh-1" target="TXNMd2RsbOrEZeQuCBzh-2">
          <mxGeometry relative="1" as="geometry">
            <mxPoint x="530" y="135" as="targetPoint" />
            <mxPoint x="195" y="105.03999999999999" as="sourcePoint" />
            <Array as="points">
              <mxPoint x="530" y="90" />
            </Array>
          </mxGeometry>
        </mxCell>
        <mxCell id="bSkJlJOAhtK9HsSSiihu-11" value="" style="edgeStyle=orthogonalEdgeStyle;rounded=0;orthogonalLoop=1;jettySize=auto;html=1;exitX=1;exitY=0.5;exitDx=0;exitDy=0;startArrow=block;startFill=1;endArrow=none;endFill=0;startSize=14;endSize=14;sourcePerimeterSpacing=8;" edge="1" parent="1" source="TXNMd2RsbOrEZeQuCBzh-1">
          <mxGeometry relative="1" as="geometry">
            <mxPoint x="430" y="120" as="targetPoint" />
            <mxPoint x="200" y="120" as="sourcePoint" />
            <Array as="points">
              <mxPoint x="293" y="120" />
            </Array>
          </mxGeometry>
        </mxCell>
        <mxCell id="bSkJlJOAhtK9HsSSiihu-12" value="Return success or fail message" style="text;html=1;strokeColor=none;fillColor=none;align=center;verticalAlign=middle;whiteSpace=wrap;rounded=0;hachureGap=4;pointerEvents=0;" vertex="1" parent="1">
          <mxGeometry x="270" y="100" width="200" height="20" as="geometry" />
        </mxCell>
        <mxCell id="bSkJlJOAhtK9HsSSiihu-13" value="Submit update details request&amp;nbsp;" style="text;html=1;strokeColor=none;fillColor=none;align=center;verticalAlign=middle;whiteSpace=wrap;rounded=0;hachureGap=4;pointerEvents=0;" vertex="1" parent="1">
          <mxGeometry x="230" y="70" width="200" height="20" as="geometry" />
        </mxCell>
        <mxCell id="bSkJlJOAhtK9HsSSiihu-15" style="edgeStyle=orthogonalEdgeStyle;rounded=0;orthogonalLoop=1;jettySize=auto;html=1;entryX=0;entryY=0.5;entryDx=0;entryDy=0;startArrow=classic;startFill=1;endArrow=block;endFill=1;startSize=14;endSize=14;sourcePerimeterSpacing=8;targetPerimeterSpacing=8;" edge="1" parent="1" target="TXNMd2RsbOrEZeQuCBzh-2">
          <mxGeometry relative="1" as="geometry">
            <mxPoint x="125" y="130" as="sourcePoint" />
            <mxPoint x="326.078" y="387.92599999999993" as="targetPoint" />
            <Array as="points">
              <mxPoint x="125" y="130" />
              <mxPoint x="130" y="130" />
              <mxPoint x="130" y="414" />
            </Array>
          </mxGeometry>
        </mxCell>
        <mxCell id="TXNMd2RsbOrEZeQuCBzh-1" value="Student" style="ellipse;whiteSpace=wrap;html=1;align=center;hachureGap=4;pointerEvents=0;shadow=0;sketch=0;" parent="1" vertex="1">
          <mxGeometry x="100" y="90" width="100" height="60" as="geometry" />
        </mxCell>
        <mxCell id="bSkJlJOAhtK9HsSSiihu-3" value="" style="endArrow=none;html=1;startSize=14;endSize=14;sourcePerimeterSpacing=8;targetPerimeterSpacing=8;entryX=0.5;entryY=0;entryDx=0;entryDy=0;" edge="1" parent="1" target="TXNMd2RsbOrEZeQuCBzh-1">
          <mxGeometry width="50" height="50" relative="1" as="geometry">
            <mxPoint x="100" y="130" as="sourcePoint" />
            <mxPoint x="150" y="80" as="targetPoint" />
          </mxGeometry>
        </mxCell>
        <mxCell id="bSkJlJOAhtK9HsSSiihu-16" value="Return graph or error message" style="text;html=1;strokeColor=none;fillColor=none;align=center;verticalAlign=middle;whiteSpace=wrap;rounded=0;hachureGap=4;pointerEvents=0;" vertex="1" parent="1">
          <mxGeometry x="50" y="310" width="50" height="60" as="geometry" />
        </mxCell>
        <mxCell id="bSkJlJOAhtK9HsSSiihu-17" value="Request to draw graph of grades" style="text;html=1;strokeColor=none;fillColor=none;align=center;verticalAlign=middle;whiteSpace=wrap;rounded=0;hachureGap=4;pointerEvents=0;" vertex="1" parent="1">
          <mxGeometry x="130" y="430" width="150" height="20" as="geometry" />
        </mxCell>
        <mxCell id="bSkJlJOAhtK9HsSSiihu-20" style="edgeStyle=orthogonalEdgeStyle;rounded=0;orthogonalLoop=1;jettySize=auto;html=1;exitX=0.5;exitY=0;exitDx=0;exitDy=0;entryX=1;entryY=0.5;entryDx=0;entryDy=0;startArrow=none;startFill=0;endArrow=classicThin;endFill=1;startSize=14;endSize=14;sourcePerimeterSpacing=8;targetPerimeterSpacing=8;" edge="1" parent="1" source="bSkJlJOAhtK9HsSSiihu-18" target="TXNMd2RsbOrEZeQuCBzh-2">
          <mxGeometry relative="1" as="geometry" />
        </mxCell>
        <mxCell id="bSkJlJOAhtK9HsSSiihu-18" value="&lt;font style=&quot;font-size: 14px&quot;&gt;Administrator&lt;/font&gt;" style="ellipse;whiteSpace=wrap;html=1;hachureGap=4;pointerEvents=0;" vertex="1" parent="1">
          <mxGeometry x="940" y="690" width="120" height="80" as="geometry" />
        </mxCell>
        <mxCell id="bSkJlJOAhtK9HsSSiihu-21" style="edgeStyle=orthogonalEdgeStyle;rounded=0;orthogonalLoop=1;jettySize=auto;html=1;exitX=0.768;exitY=0.04;exitDx=0;exitDy=0;entryX=1.001;entryY=0.524;entryDx=0;entryDy=0;startArrow=classic;startFill=1;endArrow=none;endFill=0;startSize=14;endSize=14;sourcePerimeterSpacing=8;targetPerimeterSpacing=8;exitPerimeter=0;entryPerimeter=0;" edge="1" parent="1" source="bSkJlJOAhtK9HsSSiihu-18" target="TXNMd2RsbOrEZeQuCBzh-2">
          <mxGeometry relative="1" as="geometry">
            <mxPoint x="1010" y="700" as="sourcePoint" />
            <mxPoint x="864" y="423.4999999999999" as="targetPoint" />
            <Array as="points">
              <mxPoint x="1032" y="426" />
            </Array>
          </mxGeometry>
        </mxCell>
        <mxCell id="bSkJlJOAhtK9HsSSiihu-22" value="&lt;font style=&quot;font-size: 14px&quot;&gt;Request to view server details&lt;/font&gt;" style="text;html=1;strokeColor=none;fillColor=none;align=center;verticalAlign=middle;whiteSpace=wrap;rounded=0;hachureGap=4;pointerEvents=0;" vertex="1" parent="1">
          <mxGeometry x="890" y="520" width="90" height="20" as="geometry" />
        </mxCell>
        <mxCell id="bSkJlJOAhtK9HsSSiihu-23" value="&lt;font style=&quot;font-size: 14px&quot;&gt;Return requested details&lt;/font&gt;" style="text;html=1;strokeColor=none;fillColor=none;align=center;verticalAlign=middle;whiteSpace=wrap;rounded=0;hachureGap=4;pointerEvents=0;" vertex="1" parent="1">
          <mxGeometry x="1040" y="490" width="90" height="40" as="geometry" />
        </mxCell>
      </root>
    </mxGraphModel>
  </diagram>
</mxfile>
